# xmcd
#
# Track frame offsets: 
#        150
#        10136
#        19709
#        30071
#        40929
#        50789
#        61183
#        73741
#        85938
#        95745
#        106718
#        117013
#        127921
#        137945
#        150042
#        161632
#        172317
#        182965
#        192231
#        203830
#        216559
#        227483
#
# Disc length: 3146 seconds
#
# Revision: 0
# Processed by: cddbd v1.5.2PL0 Copyright (c) Steve Scherf et al.
# Submitted via: ExactAudioCopy v1.3
#
DISCID=280c4816
DTITLE=Don Gibson - Oh Lonesome Me_Singles Collection 1956-62_CD2
DYEAR=2013
DGENRE=Country
TTITLE0=Lonesome Old House
TTITLE1=I Couldn't Care Less
TTITLE2=Don't Tell Me Your Troubles
TTITLE3=Heart Break Avenue
TTITLE4=I'm Movin' On
TTITLE5=Big Hearted Me 
TTITLE6=Just One Time 
TTITLE7=I May Never Get To Heaven
TTITLE8=Far Far Away
TTITLE9=(I'd Be) A Legend In My Time
TTITLE10=Sweet Dreams 
TTITLE11=The Same Street 
TTITLE12=What About Me
TTITLE13=The World Is Waiting For The Sunrise
TTITLE14=Sea Of Heartbreak
TTITLE15=I Think It's Best (To Forget Me)
TTITLE16=Lonesome Number One 
TTITLE17=The Same Old Trouble 
TTITLE18=I Can Mend Your Broken Heart
TTITLE19=I Let Her Get Lonely
TTITLE20=So How Come (No One Loves Me)
TTITLE21=Baby We're Really In Love 
EXTD=
EXTT0=
EXTT1=
EXTT2=
EXTT3=
EXTT4=
EXTT5=
EXTT6=
EXTT7=
EXTT8=
EXTT9=
EXTT10=
EXTT11=
EXTT12=
EXTT13=
EXTT14=
EXTT15=
EXTT16=
EXTT17=
EXTT18=
EXTT19=
EXTT20=
EXTT21=
PLAYORDER=
